<mxfile host="app.diagrams.net" modified="2024-06-08T11:53:52.019Z" agent="Mozilla/5.0 (X11; Ubuntu; Linux x86_64; rv:109.0) Gecko/20100101 Firefox/113.0" etag="WcrZYWvT-fcyNxQDPD_7" version="24.5.2" type="github" pages="2">
  <diagram name="Page-1" id="SUN2hrynsF0Qo_nyXOMb">
    <mxGraphModel dx="2205" dy="805" grid="1" gridSize="10" guides="1" tooltips="1" connect="1" arrows="1" fold="1" page="1" pageScale="1" pageWidth="850" pageHeight="1100" math="0" shadow="0">
      <root>
        <mxCell id="0" />
        <mxCell id="1" parent="0" />
        <mxCell id="LqhjX-hlJjgKgtCB3ZIO-198" value="" style="rounded=0;whiteSpace=wrap;html=1;dashed=1;" vertex="1" parent="1">
          <mxGeometry x="280" y="60" width="280" height="720" as="geometry" />
        </mxCell>
        <mxCell id="LqhjX-hlJjgKgtCB3ZIO-162" value="" style="rounded=0;whiteSpace=wrap;html=1;dashed=1;" vertex="1" parent="1">
          <mxGeometry x="600" y="255" width="140" height="330" as="geometry" />
        </mxCell>
        <mxCell id="LqhjX-hlJjgKgtCB3ZIO-86" value="" style="ellipse;whiteSpace=wrap;html=1;aspect=fixed;fillColor=#000000;" vertex="1" parent="1">
          <mxGeometry x="310" y="210" width="60" height="60" as="geometry" />
        </mxCell>
        <mxCell id="LqhjX-hlJjgKgtCB3ZIO-87" value="" style="endArrow=none;html=1;rounded=0;strokeColor=#FFFFFF;strokeWidth=8;" edge="1" parent="1">
          <mxGeometry width="50" height="50" relative="1" as="geometry">
            <mxPoint x="325" y="225" as="sourcePoint" />
            <mxPoint x="355" y="255" as="targetPoint" />
          </mxGeometry>
        </mxCell>
        <mxCell id="LqhjX-hlJjgKgtCB3ZIO-88" value="" style="endArrow=none;html=1;rounded=0;strokeColor=#FFFFFF;strokeWidth=8;" edge="1" parent="1">
          <mxGeometry width="50" height="50" relative="1" as="geometry">
            <mxPoint x="325" y="255" as="sourcePoint" />
            <mxPoint x="355" y="225" as="targetPoint" />
          </mxGeometry>
        </mxCell>
        <mxCell id="LqhjX-hlJjgKgtCB3ZIO-89" value="" style="ellipse;whiteSpace=wrap;html=1;aspect=fixed;fillColor=#000000;" vertex="1" parent="1">
          <mxGeometry x="310" y="90" width="60" height="60" as="geometry" />
        </mxCell>
        <mxCell id="LqhjX-hlJjgKgtCB3ZIO-90" value="" style="endArrow=none;html=1;rounded=0;strokeColor=#FFFFFF;strokeWidth=8;" edge="1" parent="1">
          <mxGeometry width="50" height="50" relative="1" as="geometry">
            <mxPoint x="325" y="105" as="sourcePoint" />
            <mxPoint x="355" y="135" as="targetPoint" />
          </mxGeometry>
        </mxCell>
        <mxCell id="LqhjX-hlJjgKgtCB3ZIO-91" value="" style="endArrow=none;html=1;rounded=0;strokeColor=#FFFFFF;strokeWidth=8;" edge="1" parent="1">
          <mxGeometry width="50" height="50" relative="1" as="geometry">
            <mxPoint x="325" y="135" as="sourcePoint" />
            <mxPoint x="355" y="105" as="targetPoint" />
          </mxGeometry>
        </mxCell>
        <mxCell id="LqhjX-hlJjgKgtCB3ZIO-92" value="" style="ellipse;whiteSpace=wrap;html=1;aspect=fixed;fillColor=#000000;" vertex="1" parent="1">
          <mxGeometry x="310" y="450" width="60" height="60" as="geometry" />
        </mxCell>
        <mxCell id="LqhjX-hlJjgKgtCB3ZIO-93" value="" style="endArrow=none;html=1;rounded=0;strokeColor=#FFFFFF;strokeWidth=8;" edge="1" parent="1">
          <mxGeometry width="50" height="50" relative="1" as="geometry">
            <mxPoint x="325" y="465" as="sourcePoint" />
            <mxPoint x="355" y="495" as="targetPoint" />
          </mxGeometry>
        </mxCell>
        <mxCell id="LqhjX-hlJjgKgtCB3ZIO-94" value="" style="endArrow=none;html=1;rounded=0;strokeColor=#FFFFFF;strokeWidth=8;" edge="1" parent="1">
          <mxGeometry width="50" height="50" relative="1" as="geometry">
            <mxPoint x="325" y="495" as="sourcePoint" />
            <mxPoint x="355" y="465" as="targetPoint" />
          </mxGeometry>
        </mxCell>
        <mxCell id="LqhjX-hlJjgKgtCB3ZIO-95" value="" style="ellipse;whiteSpace=wrap;html=1;aspect=fixed;fillColor=#000000;" vertex="1" parent="1">
          <mxGeometry x="310" y="330" width="60" height="60" as="geometry" />
        </mxCell>
        <mxCell id="LqhjX-hlJjgKgtCB3ZIO-96" value="" style="endArrow=none;html=1;rounded=0;strokeColor=#FFFFFF;strokeWidth=8;" edge="1" parent="1">
          <mxGeometry width="50" height="50" relative="1" as="geometry">
            <mxPoint x="325" y="345" as="sourcePoint" />
            <mxPoint x="355" y="375" as="targetPoint" />
          </mxGeometry>
        </mxCell>
        <mxCell id="LqhjX-hlJjgKgtCB3ZIO-97" value="" style="endArrow=none;html=1;rounded=0;strokeColor=#FFFFFF;strokeWidth=8;" edge="1" parent="1">
          <mxGeometry width="50" height="50" relative="1" as="geometry">
            <mxPoint x="325" y="375" as="sourcePoint" />
            <mxPoint x="355" y="345" as="targetPoint" />
          </mxGeometry>
        </mxCell>
        <mxCell id="LqhjX-hlJjgKgtCB3ZIO-98" value="" style="ellipse;whiteSpace=wrap;html=1;aspect=fixed;fillColor=#000000;" vertex="1" parent="1">
          <mxGeometry x="310" y="690" width="60" height="60" as="geometry" />
        </mxCell>
        <mxCell id="LqhjX-hlJjgKgtCB3ZIO-99" value="" style="endArrow=none;html=1;rounded=0;strokeColor=#FFFFFF;strokeWidth=8;" edge="1" parent="1">
          <mxGeometry width="50" height="50" relative="1" as="geometry">
            <mxPoint x="325" y="705" as="sourcePoint" />
            <mxPoint x="355" y="735" as="targetPoint" />
          </mxGeometry>
        </mxCell>
        <mxCell id="LqhjX-hlJjgKgtCB3ZIO-100" value="" style="endArrow=none;html=1;rounded=0;strokeColor=#FFFFFF;strokeWidth=8;" edge="1" parent="1">
          <mxGeometry width="50" height="50" relative="1" as="geometry">
            <mxPoint x="325" y="735" as="sourcePoint" />
            <mxPoint x="355" y="705" as="targetPoint" />
          </mxGeometry>
        </mxCell>
        <mxCell id="LqhjX-hlJjgKgtCB3ZIO-101" value="" style="ellipse;whiteSpace=wrap;html=1;aspect=fixed;fillColor=#000000;" vertex="1" parent="1">
          <mxGeometry x="310" y="570" width="60" height="60" as="geometry" />
        </mxCell>
        <mxCell id="LqhjX-hlJjgKgtCB3ZIO-102" value="" style="endArrow=none;html=1;rounded=0;strokeColor=#FFFFFF;strokeWidth=8;" edge="1" parent="1">
          <mxGeometry width="50" height="50" relative="1" as="geometry">
            <mxPoint x="325" y="585" as="sourcePoint" />
            <mxPoint x="355" y="615" as="targetPoint" />
          </mxGeometry>
        </mxCell>
        <mxCell id="LqhjX-hlJjgKgtCB3ZIO-103" value="" style="endArrow=none;html=1;rounded=0;strokeColor=#FFFFFF;strokeWidth=8;" edge="1" parent="1">
          <mxGeometry width="50" height="50" relative="1" as="geometry">
            <mxPoint x="325" y="615" as="sourcePoint" />
            <mxPoint x="355" y="585" as="targetPoint" />
          </mxGeometry>
        </mxCell>
        <mxCell id="LqhjX-hlJjgKgtCB3ZIO-104" value="" style="rounded=1;whiteSpace=wrap;html=1;strokeWidth=3;" vertex="1" parent="1">
          <mxGeometry x="150" y="150" width="120" height="60" as="geometry" />
        </mxCell>
        <mxCell id="LqhjX-hlJjgKgtCB3ZIO-105" value="" style="rounded=1;whiteSpace=wrap;html=1;strokeWidth=3;" vertex="1" parent="1">
          <mxGeometry x="150" y="630" width="120" height="60" as="geometry" />
        </mxCell>
        <mxCell id="LqhjX-hlJjgKgtCB3ZIO-106" value="" style="rounded=1;whiteSpace=wrap;html=1;strokeWidth=3;" vertex="1" parent="1">
          <mxGeometry y="390" width="120" height="60" as="geometry" />
        </mxCell>
        <mxCell id="LqhjX-hlJjgKgtCB3ZIO-107" value="" style="ellipse;whiteSpace=wrap;html=1;aspect=fixed;fillColor=#000000;" vertex="1" parent="1">
          <mxGeometry x="-110" y="330" width="60" height="60" as="geometry" />
        </mxCell>
        <mxCell id="LqhjX-hlJjgKgtCB3ZIO-108" value="" style="endArrow=none;html=1;rounded=0;strokeColor=#FFFFFF;strokeWidth=8;" edge="1" parent="1">
          <mxGeometry width="50" height="50" relative="1" as="geometry">
            <mxPoint x="-95" y="345" as="sourcePoint" />
            <mxPoint x="-65" y="375" as="targetPoint" />
          </mxGeometry>
        </mxCell>
        <mxCell id="LqhjX-hlJjgKgtCB3ZIO-109" value="" style="endArrow=none;html=1;rounded=0;strokeColor=#FFFFFF;strokeWidth=8;" edge="1" parent="1">
          <mxGeometry width="50" height="50" relative="1" as="geometry">
            <mxPoint x="-95" y="375" as="sourcePoint" />
            <mxPoint x="-65" y="345" as="targetPoint" />
          </mxGeometry>
        </mxCell>
        <mxCell id="LqhjX-hlJjgKgtCB3ZIO-110" value="" style="ellipse;whiteSpace=wrap;html=1;aspect=fixed;fillColor=#000000;" vertex="1" parent="1">
          <mxGeometry x="-110" y="450" width="60" height="60" as="geometry" />
        </mxCell>
        <mxCell id="LqhjX-hlJjgKgtCB3ZIO-111" value="" style="endArrow=none;html=1;rounded=0;strokeColor=#FFFFFF;strokeWidth=8;" edge="1" parent="1">
          <mxGeometry width="50" height="50" relative="1" as="geometry">
            <mxPoint x="-95" y="465" as="sourcePoint" />
            <mxPoint x="-65" y="495" as="targetPoint" />
          </mxGeometry>
        </mxCell>
        <mxCell id="LqhjX-hlJjgKgtCB3ZIO-112" value="" style="endArrow=none;html=1;rounded=0;strokeColor=#FFFFFF;strokeWidth=8;" edge="1" parent="1">
          <mxGeometry width="50" height="50" relative="1" as="geometry">
            <mxPoint x="-95" y="495" as="sourcePoint" />
            <mxPoint x="-65" y="465" as="targetPoint" />
          </mxGeometry>
        </mxCell>
        <mxCell id="LqhjX-hlJjgKgtCB3ZIO-113" value="" style="rounded=1;whiteSpace=wrap;html=1;strokeWidth=3;" vertex="1" parent="1">
          <mxGeometry x="-110" y="230" width="60" height="60" as="geometry" />
        </mxCell>
        <mxCell id="LqhjX-hlJjgKgtCB3ZIO-114" value="" style="rounded=1;whiteSpace=wrap;html=1;strokeWidth=3;" vertex="1" parent="1">
          <mxGeometry x="-110" y="550" width="60" height="60" as="geometry" />
        </mxCell>
        <mxCell id="LqhjX-hlJjgKgtCB3ZIO-115" value="" style="rounded=1;whiteSpace=wrap;html=1;strokeWidth=3;" vertex="1" parent="1">
          <mxGeometry x="420" y="90" width="120" height="60" as="geometry" />
        </mxCell>
        <mxCell id="LqhjX-hlJjgKgtCB3ZIO-116" value="" style="rounded=1;whiteSpace=wrap;html=1;strokeWidth=3;" vertex="1" parent="1">
          <mxGeometry x="420" y="210" width="120" height="60" as="geometry" />
        </mxCell>
        <mxCell id="LqhjX-hlJjgKgtCB3ZIO-117" value="" style="rounded=1;whiteSpace=wrap;html=1;strokeWidth=3;" vertex="1" parent="1">
          <mxGeometry x="420" y="330" width="120" height="60" as="geometry" />
        </mxCell>
        <mxCell id="LqhjX-hlJjgKgtCB3ZIO-118" value="" style="rounded=1;whiteSpace=wrap;html=1;strokeWidth=3;" vertex="1" parent="1">
          <mxGeometry x="420" y="450" width="120" height="60" as="geometry" />
        </mxCell>
        <mxCell id="LqhjX-hlJjgKgtCB3ZIO-119" value="" style="rounded=1;whiteSpace=wrap;html=1;strokeWidth=3;" vertex="1" parent="1">
          <mxGeometry x="420" y="570" width="120" height="60" as="geometry" />
        </mxCell>
        <mxCell id="LqhjX-hlJjgKgtCB3ZIO-120" value="" style="rounded=1;whiteSpace=wrap;html=1;strokeWidth=3;" vertex="1" parent="1">
          <mxGeometry x="420" y="690" width="120" height="60" as="geometry" />
        </mxCell>
        <mxCell id="LqhjX-hlJjgKgtCB3ZIO-121" value="" style="rounded=1;whiteSpace=wrap;html=1;strokeWidth=3;" vertex="1" parent="1">
          <mxGeometry x="610" y="270" width="120" height="60" as="geometry" />
        </mxCell>
        <mxCell id="LqhjX-hlJjgKgtCB3ZIO-122" value="" style="rounded=1;whiteSpace=wrap;html=1;strokeWidth=3;" vertex="1" parent="1">
          <mxGeometry x="610" y="510" width="120" height="60" as="geometry" />
        </mxCell>
        <mxCell id="LqhjX-hlJjgKgtCB3ZIO-123" value="" style="rounded=1;whiteSpace=wrap;html=1;strokeWidth=3;" vertex="1" parent="1">
          <mxGeometry x="770" y="320" width="120" height="200" as="geometry" />
        </mxCell>
        <mxCell id="LqhjX-hlJjgKgtCB3ZIO-124" value="" style="rounded=1;whiteSpace=wrap;html=1;strokeWidth=3;" vertex="1" parent="1">
          <mxGeometry x="950" y="270" width="170" height="60" as="geometry" />
        </mxCell>
        <mxCell id="LqhjX-hlJjgKgtCB3ZIO-125" value="" style="rounded=1;whiteSpace=wrap;html=1;strokeWidth=3;" vertex="1" parent="1">
          <mxGeometry x="950" y="510" width="170" height="60" as="geometry" />
        </mxCell>
        <mxCell id="LqhjX-hlJjgKgtCB3ZIO-126" value="" style="rounded=1;whiteSpace=wrap;html=1;strokeWidth=3;" vertex="1" parent="1">
          <mxGeometry x="950" y="390" width="170" height="60" as="geometry" />
        </mxCell>
        <mxCell id="LqhjX-hlJjgKgtCB3ZIO-130" value="" style="endArrow=classic;startArrow=classic;html=1;rounded=1;exitX=0;exitY=0.5;exitDx=0;exitDy=0;entryX=0;entryY=0.5;entryDx=0;entryDy=0;strokeWidth=3;curved=0;" edge="1" parent="1" source="LqhjX-hlJjgKgtCB3ZIO-110" target="LqhjX-hlJjgKgtCB3ZIO-107">
          <mxGeometry width="50" height="50" relative="1" as="geometry">
            <mxPoint x="400" y="330" as="sourcePoint" />
            <mxPoint x="450" y="280" as="targetPoint" />
            <Array as="points">
              <mxPoint x="-160" y="480" />
              <mxPoint x="-160" y="360" />
            </Array>
          </mxGeometry>
        </mxCell>
        <mxCell id="LqhjX-hlJjgKgtCB3ZIO-131" value="" style="endArrow=classic;html=1;rounded=0;strokeWidth=3;" edge="1" parent="1">
          <mxGeometry width="50" height="50" relative="1" as="geometry">
            <mxPoint x="-240" y="420" as="sourcePoint" />
            <mxPoint x="-160" y="420" as="targetPoint" />
          </mxGeometry>
        </mxCell>
        <mxCell id="LqhjX-hlJjgKgtCB3ZIO-132" value="" style="endArrow=classic;html=1;rounded=1;entryX=0;entryY=0.75;entryDx=0;entryDy=0;strokeWidth=3;strokeColor=default;curved=0;" edge="1" parent="1" target="LqhjX-hlJjgKgtCB3ZIO-113">
          <mxGeometry width="50" height="50" relative="1" as="geometry">
            <mxPoint x="-240" y="320" as="sourcePoint" />
            <mxPoint x="130" y="400" as="targetPoint" />
            <Array as="points">
              <mxPoint x="-240" y="275" />
            </Array>
          </mxGeometry>
        </mxCell>
        <mxCell id="LqhjX-hlJjgKgtCB3ZIO-135" value="" style="endArrow=classic;html=1;rounded=1;entryX=0;entryY=0.25;entryDx=0;entryDy=0;strokeWidth=3;curved=0;" edge="1" parent="1" target="LqhjX-hlJjgKgtCB3ZIO-114">
          <mxGeometry width="50" height="50" relative="1" as="geometry">
            <mxPoint x="-240" y="520" as="sourcePoint" />
            <mxPoint x="130" y="420" as="targetPoint" />
            <Array as="points">
              <mxPoint x="-240" y="565" />
            </Array>
          </mxGeometry>
        </mxCell>
        <mxCell id="LqhjX-hlJjgKgtCB3ZIO-136" value="" style="endArrow=classic;html=1;rounded=0;entryX=0;entryY=0.5;entryDx=0;entryDy=0;exitX=1;exitY=0.5;exitDx=0;exitDy=0;strokeWidth=3;" edge="1" parent="1" source="LqhjX-hlJjgKgtCB3ZIO-107" target="LqhjX-hlJjgKgtCB3ZIO-95">
          <mxGeometry width="50" height="50" relative="1" as="geometry">
            <mxPoint x="190" y="510" as="sourcePoint" />
            <mxPoint x="240" y="460" as="targetPoint" />
          </mxGeometry>
        </mxCell>
        <mxCell id="LqhjX-hlJjgKgtCB3ZIO-137" value="" style="endArrow=classic;html=1;rounded=0;entryX=0;entryY=0.5;entryDx=0;entryDy=0;exitX=1;exitY=0.5;exitDx=0;exitDy=0;strokeWidth=3;" edge="1" parent="1">
          <mxGeometry width="50" height="50" relative="1" as="geometry">
            <mxPoint x="-50" y="479.29" as="sourcePoint" />
            <mxPoint x="310" y="479.29" as="targetPoint" />
          </mxGeometry>
        </mxCell>
        <mxCell id="LqhjX-hlJjgKgtCB3ZIO-138" value="" style="endArrow=classic;html=1;rounded=1;entryX=0;entryY=0.5;entryDx=0;entryDy=0;strokeWidth=3;curved=0;" edge="1" parent="1" target="LqhjX-hlJjgKgtCB3ZIO-89">
          <mxGeometry width="50" height="50" relative="1" as="geometry">
            <mxPoint x="40" y="360" as="sourcePoint" />
            <mxPoint x="240" y="390" as="targetPoint" />
            <Array as="points">
              <mxPoint x="40" y="120" />
            </Array>
          </mxGeometry>
        </mxCell>
        <mxCell id="LqhjX-hlJjgKgtCB3ZIO-139" value="" style="endArrow=classic;html=1;rounded=1;entryX=0;entryY=0.5;entryDx=0;entryDy=0;strokeWidth=3;curved=0;" edge="1" parent="1" target="LqhjX-hlJjgKgtCB3ZIO-98">
          <mxGeometry width="50" height="50" relative="1" as="geometry">
            <mxPoint x="40" y="480" as="sourcePoint" />
            <mxPoint x="240" y="390" as="targetPoint" />
            <Array as="points">
              <mxPoint x="40" y="720" />
            </Array>
          </mxGeometry>
        </mxCell>
        <mxCell id="LqhjX-hlJjgKgtCB3ZIO-140" value="" style="endArrow=classic;html=1;rounded=1;entryX=0;entryY=0.5;entryDx=0;entryDy=0;strokeWidth=3;curved=0;" edge="1" parent="1" target="LqhjX-hlJjgKgtCB3ZIO-86">
          <mxGeometry width="50" height="50" relative="1" as="geometry">
            <mxPoint x="160" y="480" as="sourcePoint" />
            <mxPoint x="230" y="410" as="targetPoint" />
            <Array as="points">
              <mxPoint x="160" y="240" />
            </Array>
          </mxGeometry>
        </mxCell>
        <mxCell id="LqhjX-hlJjgKgtCB3ZIO-141" value="" style="endArrow=classic;html=1;rounded=1;entryX=0;entryY=0.5;entryDx=0;entryDy=0;strokeWidth=3;curved=0;" edge="1" parent="1" target="LqhjX-hlJjgKgtCB3ZIO-101">
          <mxGeometry width="50" height="50" relative="1" as="geometry">
            <mxPoint x="200" y="360" as="sourcePoint" />
            <mxPoint x="230" y="410" as="targetPoint" />
            <Array as="points">
              <mxPoint x="200" y="600" />
            </Array>
          </mxGeometry>
        </mxCell>
        <mxCell id="LqhjX-hlJjgKgtCB3ZIO-142" value="" style="endArrow=classic;html=1;rounded=0;entryX=0;entryY=0.5;entryDx=0;entryDy=0;exitX=1;exitY=0.5;exitDx=0;exitDy=0;strokeWidth=3;" edge="1" parent="1" source="LqhjX-hlJjgKgtCB3ZIO-89" target="LqhjX-hlJjgKgtCB3ZIO-115">
          <mxGeometry width="50" height="50" relative="1" as="geometry">
            <mxPoint x="180" y="340" as="sourcePoint" />
            <mxPoint x="230" y="290" as="targetPoint" />
          </mxGeometry>
        </mxCell>
        <mxCell id="LqhjX-hlJjgKgtCB3ZIO-143" value="" style="endArrow=classic;html=1;rounded=0;entryX=0;entryY=0.5;entryDx=0;entryDy=0;exitX=1;exitY=0.5;exitDx=0;exitDy=0;strokeWidth=3;" edge="1" parent="1">
          <mxGeometry width="50" height="50" relative="1" as="geometry">
            <mxPoint x="370" y="239.5" as="sourcePoint" />
            <mxPoint x="420" y="239.5" as="targetPoint" />
          </mxGeometry>
        </mxCell>
        <mxCell id="LqhjX-hlJjgKgtCB3ZIO-144" value="" style="endArrow=classic;html=1;rounded=0;entryX=0;entryY=0.5;entryDx=0;entryDy=0;exitX=1;exitY=0.5;exitDx=0;exitDy=0;strokeWidth=3;" edge="1" parent="1">
          <mxGeometry width="50" height="50" relative="1" as="geometry">
            <mxPoint x="370" y="359.5" as="sourcePoint" />
            <mxPoint x="420" y="359.5" as="targetPoint" />
          </mxGeometry>
        </mxCell>
        <mxCell id="LqhjX-hlJjgKgtCB3ZIO-145" value="" style="endArrow=classic;html=1;rounded=0;entryX=0;entryY=0.5;entryDx=0;entryDy=0;exitX=1;exitY=0.5;exitDx=0;exitDy=0;strokeWidth=3;" edge="1" parent="1">
          <mxGeometry width="50" height="50" relative="1" as="geometry">
            <mxPoint x="370" y="479.5" as="sourcePoint" />
            <mxPoint x="420" y="479.5" as="targetPoint" />
          </mxGeometry>
        </mxCell>
        <mxCell id="LqhjX-hlJjgKgtCB3ZIO-146" value="" style="endArrow=classic;html=1;rounded=0;entryX=0;entryY=0.5;entryDx=0;entryDy=0;exitX=1;exitY=0.5;exitDx=0;exitDy=0;strokeWidth=3;" edge="1" parent="1">
          <mxGeometry width="50" height="50" relative="1" as="geometry">
            <mxPoint x="370" y="599.5" as="sourcePoint" />
            <mxPoint x="420" y="599.5" as="targetPoint" />
          </mxGeometry>
        </mxCell>
        <mxCell id="LqhjX-hlJjgKgtCB3ZIO-147" value="" style="endArrow=classic;html=1;rounded=0;entryX=0;entryY=0.5;entryDx=0;entryDy=0;exitX=1;exitY=0.5;exitDx=0;exitDy=0;strokeWidth=3;" edge="1" parent="1">
          <mxGeometry width="50" height="50" relative="1" as="geometry">
            <mxPoint x="370" y="719.5" as="sourcePoint" />
            <mxPoint x="420" y="719.5" as="targetPoint" />
          </mxGeometry>
        </mxCell>
        <mxCell id="LqhjX-hlJjgKgtCB3ZIO-148" value="" style="endArrow=classic;html=1;rounded=0;entryX=-0.017;entryY=0.2;entryDx=0;entryDy=0;entryPerimeter=0;exitX=1;exitY=0.5;exitDx=0;exitDy=0;strokeWidth=3;" edge="1" parent="1" source="LqhjX-hlJjgKgtCB3ZIO-117" target="LqhjX-hlJjgKgtCB3ZIO-123">
          <mxGeometry width="50" height="50" relative="1" as="geometry">
            <mxPoint x="430" y="350" as="sourcePoint" />
            <mxPoint x="480" y="300" as="targetPoint" />
          </mxGeometry>
        </mxCell>
        <mxCell id="LqhjX-hlJjgKgtCB3ZIO-149" value="" style="endArrow=classic;html=1;rounded=0;entryX=-0.017;entryY=0.2;entryDx=0;entryDy=0;entryPerimeter=0;exitX=1;exitY=0.5;exitDx=0;exitDy=0;strokeWidth=3;" edge="1" parent="1">
          <mxGeometry width="50" height="50" relative="1" as="geometry">
            <mxPoint x="542" y="479.5" as="sourcePoint" />
            <mxPoint x="770" y="479.5" as="targetPoint" />
          </mxGeometry>
        </mxCell>
        <mxCell id="LqhjX-hlJjgKgtCB3ZIO-150" value="" style="endArrow=classic;html=1;rounded=0;entryX=0.75;entryY=0;entryDx=0;entryDy=0;exitX=1;exitY=0.5;exitDx=0;exitDy=0;strokeWidth=3;" edge="1" parent="1" source="LqhjX-hlJjgKgtCB3ZIO-115" target="LqhjX-hlJjgKgtCB3ZIO-123">
          <mxGeometry width="50" height="50" relative="1" as="geometry">
            <mxPoint x="370" y="380" as="sourcePoint" />
            <mxPoint x="420" y="330" as="targetPoint" />
            <Array as="points">
              <mxPoint x="860" y="120" />
            </Array>
          </mxGeometry>
        </mxCell>
        <mxCell id="LqhjX-hlJjgKgtCB3ZIO-151" value="" style="endArrow=classic;html=1;rounded=0;entryX=0.25;entryY=0;entryDx=0;entryDy=0;exitX=1;exitY=0.5;exitDx=0;exitDy=0;strokeWidth=3;" edge="1" parent="1" source="LqhjX-hlJjgKgtCB3ZIO-116" target="LqhjX-hlJjgKgtCB3ZIO-123">
          <mxGeometry width="50" height="50" relative="1" as="geometry">
            <mxPoint x="370" y="380" as="sourcePoint" />
            <mxPoint x="420" y="330" as="targetPoint" />
            <Array as="points">
              <mxPoint x="800" y="240" />
            </Array>
          </mxGeometry>
        </mxCell>
        <mxCell id="LqhjX-hlJjgKgtCB3ZIO-152" value="" style="endArrow=classic;html=1;rounded=0;entryX=0.75;entryY=1;entryDx=0;entryDy=0;exitX=1;exitY=0.5;exitDx=0;exitDy=0;strokeWidth=3;" edge="1" parent="1" source="LqhjX-hlJjgKgtCB3ZIO-120" target="LqhjX-hlJjgKgtCB3ZIO-123">
          <mxGeometry width="50" height="50" relative="1" as="geometry">
            <mxPoint x="370" y="460" as="sourcePoint" />
            <mxPoint x="420" y="410" as="targetPoint" />
            <Array as="points">
              <mxPoint x="860" y="720" />
            </Array>
          </mxGeometry>
        </mxCell>
        <mxCell id="LqhjX-hlJjgKgtCB3ZIO-153" value="" style="endArrow=classic;html=1;rounded=0;entryX=0.25;entryY=1;entryDx=0;entryDy=0;exitX=1;exitY=0.5;exitDx=0;exitDy=0;strokeWidth=3;" edge="1" parent="1" source="LqhjX-hlJjgKgtCB3ZIO-119" target="LqhjX-hlJjgKgtCB3ZIO-123">
          <mxGeometry width="50" height="50" relative="1" as="geometry">
            <mxPoint x="370" y="460" as="sourcePoint" />
            <mxPoint x="420" y="410" as="targetPoint" />
            <Array as="points">
              <mxPoint x="800" y="600" />
            </Array>
          </mxGeometry>
        </mxCell>
        <mxCell id="LqhjX-hlJjgKgtCB3ZIO-160" value="" style="endArrow=classic;startArrow=classic;html=1;rounded=0;entryX=0.75;entryY=1;entryDx=0;entryDy=0;exitX=0.75;exitY=0;exitDx=0;exitDy=0;strokeWidth=3;" edge="1" parent="1" source="LqhjX-hlJjgKgtCB3ZIO-122" target="LqhjX-hlJjgKgtCB3ZIO-121">
          <mxGeometry width="50" height="50" relative="1" as="geometry">
            <mxPoint x="370" y="460" as="sourcePoint" />
            <mxPoint x="420" y="410" as="targetPoint" />
          </mxGeometry>
        </mxCell>
        <mxCell id="LqhjX-hlJjgKgtCB3ZIO-161" value="" style="endArrow=classic;startArrow=classic;html=1;rounded=0;entryX=0.25;entryY=1;entryDx=0;entryDy=0;exitX=0.25;exitY=0;exitDx=0;exitDy=0;strokeWidth=3;" edge="1" parent="1" source="LqhjX-hlJjgKgtCB3ZIO-122" target="LqhjX-hlJjgKgtCB3ZIO-121">
          <mxGeometry width="50" height="50" relative="1" as="geometry">
            <mxPoint x="370" y="460" as="sourcePoint" />
            <mxPoint x="420" y="410" as="targetPoint" />
          </mxGeometry>
        </mxCell>
        <mxCell id="LqhjX-hlJjgKgtCB3ZIO-163" value="" style="endArrow=classic;html=1;rounded=0;exitX=1;exitY=0.5;exitDx=0;exitDy=0;entryX=0;entryY=0.5;entryDx=0;entryDy=0;strokeWidth=3;" edge="1" parent="1" source="LqhjX-hlJjgKgtCB3ZIO-121" target="LqhjX-hlJjgKgtCB3ZIO-124">
          <mxGeometry width="50" height="50" relative="1" as="geometry">
            <mxPoint x="870" y="380" as="sourcePoint" />
            <mxPoint x="920" y="330" as="targetPoint" />
          </mxGeometry>
        </mxCell>
        <mxCell id="LqhjX-hlJjgKgtCB3ZIO-164" value="" style="endArrow=classic;html=1;rounded=0;exitX=1;exitY=0.5;exitDx=0;exitDy=0;entryX=0;entryY=0.5;entryDx=0;entryDy=0;strokeWidth=3;" edge="1" parent="1">
          <mxGeometry width="50" height="50" relative="1" as="geometry">
            <mxPoint x="730" y="539.38" as="sourcePoint" />
            <mxPoint x="950" y="539.38" as="targetPoint" />
          </mxGeometry>
        </mxCell>
        <mxCell id="LqhjX-hlJjgKgtCB3ZIO-165" value="" style="endArrow=classic;html=1;rounded=0;entryX=0;entryY=0.5;entryDx=0;entryDy=0;strokeWidth=3;" edge="1" parent="1" source="LqhjX-hlJjgKgtCB3ZIO-123" target="LqhjX-hlJjgKgtCB3ZIO-126">
          <mxGeometry width="50" height="50" relative="1" as="geometry">
            <mxPoint x="870" y="380" as="sourcePoint" />
            <mxPoint x="920" y="330" as="targetPoint" />
          </mxGeometry>
        </mxCell>
        <mxCell id="LqhjX-hlJjgKgtCB3ZIO-166" value="" style="endArrow=classic;html=1;rounded=1;exitX=1;exitY=0.5;exitDx=0;exitDy=0;entryX=0;entryY=0.25;entryDx=0;entryDy=0;strokeWidth=3;curved=0;" edge="1" parent="1" source="LqhjX-hlJjgKgtCB3ZIO-124" target="LqhjX-hlJjgKgtCB3ZIO-113">
          <mxGeometry width="50" height="50" relative="1" as="geometry">
            <mxPoint x="680" y="280" as="sourcePoint" />
            <mxPoint x="730" y="230" as="targetPoint" />
            <Array as="points">
              <mxPoint x="1160" y="300" />
              <mxPoint x="1160" y="80" />
              <mxPoint x="-160" y="80" />
              <mxPoint x="-160" y="245" />
            </Array>
          </mxGeometry>
        </mxCell>
        <mxCell id="LqhjX-hlJjgKgtCB3ZIO-167" value="" style="endArrow=classic;html=1;rounded=1;entryX=0;entryY=0.75;entryDx=0;entryDy=0;exitX=1;exitY=0.5;exitDx=0;exitDy=0;strokeWidth=3;curved=0;" edge="1" parent="1" source="LqhjX-hlJjgKgtCB3ZIO-125" target="LqhjX-hlJjgKgtCB3ZIO-114">
          <mxGeometry width="50" height="50" relative="1" as="geometry">
            <mxPoint x="30" y="800" as="sourcePoint" />
            <mxPoint x="150" y="470" as="targetPoint" />
            <Array as="points">
              <mxPoint x="1160" y="540" />
              <mxPoint x="1160" y="760" />
              <mxPoint x="-160" y="760" />
              <mxPoint x="-160" y="595" />
            </Array>
          </mxGeometry>
        </mxCell>
        <mxCell id="LqhjX-hlJjgKgtCB3ZIO-168" value="" style="endArrow=classic;html=1;rounded=1;entryX=0;entryY=0.5;entryDx=0;entryDy=0;exitX=1;exitY=0.5;exitDx=0;exitDy=0;strokeWidth=3;curved=0;" edge="1" parent="1" source="LqhjX-hlJjgKgtCB3ZIO-126" target="LqhjX-hlJjgKgtCB3ZIO-106">
          <mxGeometry width="50" height="50" relative="1" as="geometry">
            <mxPoint x="220" y="520" as="sourcePoint" />
            <mxPoint x="270" y="470" as="targetPoint" />
            <Array as="points">
              <mxPoint x="1200" y="420" />
              <mxPoint x="1200" y="40" />
              <mxPoint x="-30" y="40" />
              <mxPoint x="-30" y="420" />
            </Array>
          </mxGeometry>
        </mxCell>
        <mxCell id="LqhjX-hlJjgKgtCB3ZIO-169" value="" style="endArrow=classic;startArrow=classic;html=1;rounded=0;entryX=0.5;entryY=1;entryDx=0;entryDy=0;exitX=0.5;exitY=0;exitDx=0;exitDy=0;strokeWidth=3;" edge="1" parent="1" source="LqhjX-hlJjgKgtCB3ZIO-86" target="LqhjX-hlJjgKgtCB3ZIO-89">
          <mxGeometry width="50" height="50" relative="1" as="geometry">
            <mxPoint x="280" y="440" as="sourcePoint" />
            <mxPoint x="330" y="390" as="targetPoint" />
          </mxGeometry>
        </mxCell>
        <mxCell id="LqhjX-hlJjgKgtCB3ZIO-170" value="" style="endArrow=classic;startArrow=classic;html=1;rounded=0;entryX=0.5;entryY=1;entryDx=0;entryDy=0;exitX=0.5;exitY=0;exitDx=0;exitDy=0;strokeWidth=3;" edge="1" parent="1">
          <mxGeometry width="50" height="50" relative="1" as="geometry">
            <mxPoint x="339.47" y="450" as="sourcePoint" />
            <mxPoint x="339.47" y="390" as="targetPoint" />
          </mxGeometry>
        </mxCell>
        <mxCell id="LqhjX-hlJjgKgtCB3ZIO-171" value="" style="endArrow=classic;startArrow=classic;html=1;rounded=0;entryX=0.5;entryY=1;entryDx=0;entryDy=0;exitX=0.5;exitY=0;exitDx=0;exitDy=0;strokeWidth=3;" edge="1" parent="1">
          <mxGeometry width="50" height="50" relative="1" as="geometry">
            <mxPoint x="340" y="690" as="sourcePoint" />
            <mxPoint x="340" y="630" as="targetPoint" />
          </mxGeometry>
        </mxCell>
        <mxCell id="LqhjX-hlJjgKgtCB3ZIO-172" value="" style="endArrow=classic;html=1;rounded=0;exitX=1;exitY=0.5;exitDx=0;exitDy=0;strokeWidth=3;" edge="1" parent="1" source="LqhjX-hlJjgKgtCB3ZIO-106">
          <mxGeometry width="50" height="50" relative="1" as="geometry">
            <mxPoint x="320" y="490" as="sourcePoint" />
            <mxPoint x="340" y="420" as="targetPoint" />
          </mxGeometry>
        </mxCell>
        <mxCell id="LqhjX-hlJjgKgtCB3ZIO-173" value="" style="endArrow=classic;html=1;rounded=0;exitX=1;exitY=0.5;exitDx=0;exitDy=0;strokeWidth=3;" edge="1" parent="1" source="LqhjX-hlJjgKgtCB3ZIO-104">
          <mxGeometry width="50" height="50" relative="1" as="geometry">
            <mxPoint x="320" y="400" as="sourcePoint" />
            <mxPoint x="340" y="180" as="targetPoint" />
          </mxGeometry>
        </mxCell>
        <mxCell id="LqhjX-hlJjgKgtCB3ZIO-174" value="" style="endArrow=classic;html=1;rounded=0;exitX=1;exitY=0.5;exitDx=0;exitDy=0;strokeWidth=3;" edge="1" parent="1">
          <mxGeometry width="50" height="50" relative="1" as="geometry">
            <mxPoint x="270" y="659.47" as="sourcePoint" />
            <mxPoint x="340" y="659.47" as="targetPoint" />
          </mxGeometry>
        </mxCell>
        <mxCell id="LqhjX-hlJjgKgtCB3ZIO-175" value="" style="endArrow=classic;startArrow=classic;html=1;rounded=1;entryX=0;entryY=0.5;entryDx=0;entryDy=0;exitX=0;exitY=0.5;exitDx=0;exitDy=0;strokeWidth=3;curved=0;" edge="1" parent="1" source="LqhjX-hlJjgKgtCB3ZIO-105" target="LqhjX-hlJjgKgtCB3ZIO-104">
          <mxGeometry width="50" height="50" relative="1" as="geometry">
            <mxPoint x="210" y="440" as="sourcePoint" />
            <mxPoint x="260" y="390" as="targetPoint" />
            <Array as="points">
              <mxPoint x="130" y="660" />
              <mxPoint x="130" y="180" />
            </Array>
          </mxGeometry>
        </mxCell>
        <mxCell id="LqhjX-hlJjgKgtCB3ZIO-176" value="" style="endArrow=classic;html=1;rounded=0;entryX=0.5;entryY=0;entryDx=0;entryDy=0;exitX=0.5;exitY=1;exitDx=0;exitDy=0;strokeWidth=3;" edge="1" parent="1" source="LqhjX-hlJjgKgtCB3ZIO-113" target="LqhjX-hlJjgKgtCB3ZIO-107">
          <mxGeometry width="50" height="50" relative="1" as="geometry">
            <mxPoint x="110" y="400" as="sourcePoint" />
            <mxPoint x="160" y="350" as="targetPoint" />
          </mxGeometry>
        </mxCell>
        <mxCell id="LqhjX-hlJjgKgtCB3ZIO-178" value="" style="endArrow=classic;html=1;rounded=0;exitX=0.5;exitY=0;exitDx=0;exitDy=0;entryX=0.5;entryY=1;entryDx=0;entryDy=0;strokeWidth=3;" edge="1" parent="1" source="LqhjX-hlJjgKgtCB3ZIO-114" target="LqhjX-hlJjgKgtCB3ZIO-110">
          <mxGeometry width="50" height="50" relative="1" as="geometry">
            <mxPoint x="110" y="400" as="sourcePoint" />
            <mxPoint x="160" y="350" as="targetPoint" />
          </mxGeometry>
        </mxCell>
        <mxCell id="LqhjX-hlJjgKgtCB3ZIO-179" value="&lt;font style=&quot;font-size: 14px;&quot; face=&quot;Times New Roman&quot;&gt;&lt;b&gt;COS&lt;/b&gt;&lt;/font&gt;" style="text;html=1;align=center;verticalAlign=middle;whiteSpace=wrap;rounded=0;" vertex="1" parent="1">
          <mxGeometry x="-110" y="245" width="60" height="30" as="geometry" />
        </mxCell>
        <mxCell id="LqhjX-hlJjgKgtCB3ZIO-180" value="&lt;font style=&quot;font-size: 14px;&quot; face=&quot;Times New Roman&quot;&gt;&lt;b&gt;SIN&lt;/b&gt;&lt;/font&gt;" style="text;html=1;align=center;verticalAlign=middle;whiteSpace=wrap;rounded=0;" vertex="1" parent="1">
          <mxGeometry x="-110" y="565" width="60" height="30" as="geometry" />
        </mxCell>
        <mxCell id="LqhjX-hlJjgKgtCB3ZIO-181" value="&lt;div&gt;&lt;b&gt;&lt;font style=&quot;font-size: 14px;&quot; face=&quot;Times New Roman&quot;&gt;CA CODE&lt;/font&gt;&lt;/b&gt;&lt;/div&gt;&lt;div&gt;&lt;b&gt;&lt;font style=&quot;font-size: 14px;&quot; face=&quot;Times New Roman&quot;&gt;GENERATOR&lt;/font&gt;&lt;font face=&quot;9OAc3o7K2-tYkBuDYFM8&quot;&gt;&lt;br&gt;&lt;/font&gt;&lt;/b&gt; &lt;/div&gt;" style="text;html=1;align=center;verticalAlign=middle;whiteSpace=wrap;rounded=0;" vertex="1" parent="1">
          <mxGeometry x="15" y="405" width="90" height="30" as="geometry" />
        </mxCell>
        <mxCell id="LqhjX-hlJjgKgtCB3ZIO-182" value="&lt;div&gt;&lt;b&gt;&lt;font style=&quot;font-size: 14px;&quot; face=&quot;Times New Roman&quot;&gt;HALF CHIP&lt;/font&gt;&lt;/b&gt;&lt;/div&gt;&lt;div&gt;&lt;b&gt;&lt;font style=&quot;font-size: 14px;&quot; face=&quot;Times New Roman&quot;&gt;ADVANCE&lt;/font&gt;&lt;font face=&quot;_-B6nYthj9-JZ_YgI90N&quot;&gt;&lt;br&gt;&lt;/font&gt;&lt;/b&gt; &lt;/div&gt;" style="text;html=1;align=center;verticalAlign=middle;whiteSpace=wrap;rounded=0;" vertex="1" parent="1">
          <mxGeometry x="165" y="165" width="90" height="30" as="geometry" />
        </mxCell>
        <mxCell id="LqhjX-hlJjgKgtCB3ZIO-183" value="&lt;div&gt;&lt;b&gt;&lt;font style=&quot;font-size: 14px;&quot; face=&quot;Times New Roman&quot;&gt;HALF CHIP&lt;/font&gt;&lt;/b&gt;&lt;/div&gt;&lt;div&gt;&lt;b&gt;&lt;font style=&quot;font-size: 14px;&quot; face=&quot;Times New Roman&quot;&gt;DELAY&lt;/font&gt;&lt;font face=&quot;_-B6nYthj9-JZ_YgI90N&quot;&gt;&lt;br&gt;&lt;/font&gt;&lt;/b&gt; &lt;/div&gt;" style="text;html=1;align=center;verticalAlign=middle;whiteSpace=wrap;rounded=0;" vertex="1" parent="1">
          <mxGeometry x="165" y="645" width="90" height="30" as="geometry" />
        </mxCell>
        <mxCell id="LqhjX-hlJjgKgtCB3ZIO-185" value="&lt;font style=&quot;font-size: 14px;&quot; face=&quot;Times New Roman&quot;&gt;&lt;b&gt;ACCUMULATE&lt;/b&gt;&lt;/font&gt;" style="text;html=1;align=center;verticalAlign=middle;whiteSpace=wrap;rounded=0;" vertex="1" parent="1">
          <mxGeometry x="440" y="105" width="80" height="30" as="geometry" />
        </mxCell>
        <mxCell id="LqhjX-hlJjgKgtCB3ZIO-186" value="&lt;font style=&quot;font-size: 14px;&quot; face=&quot;Times New Roman&quot;&gt;&lt;b&gt;ACCUMULATE&lt;/b&gt;&lt;/font&gt;" style="text;html=1;align=center;verticalAlign=middle;whiteSpace=wrap;rounded=0;" vertex="1" parent="1">
          <mxGeometry x="440" y="225" width="80" height="30" as="geometry" />
        </mxCell>
        <mxCell id="LqhjX-hlJjgKgtCB3ZIO-187" value="&lt;font style=&quot;font-size: 14px;&quot; face=&quot;Times New Roman&quot;&gt;&lt;b&gt;ACCUMULATE&lt;/b&gt;&lt;/font&gt;" style="text;html=1;align=center;verticalAlign=middle;whiteSpace=wrap;rounded=0;" vertex="1" parent="1">
          <mxGeometry x="440" y="345" width="80" height="30" as="geometry" />
        </mxCell>
        <mxCell id="LqhjX-hlJjgKgtCB3ZIO-188" value="&lt;font style=&quot;font-size: 14px;&quot; face=&quot;Times New Roman&quot;&gt;&lt;b&gt;ACCUMULATE&lt;/b&gt;&lt;/font&gt;" style="text;html=1;align=center;verticalAlign=middle;whiteSpace=wrap;rounded=0;" vertex="1" parent="1">
          <mxGeometry x="440" y="465" width="80" height="30" as="geometry" />
        </mxCell>
        <mxCell id="LqhjX-hlJjgKgtCB3ZIO-189" value="&lt;font style=&quot;font-size: 14px;&quot; face=&quot;Times New Roman&quot;&gt;&lt;b&gt;ACCUMULATE&lt;/b&gt;&lt;/font&gt;" style="text;html=1;align=center;verticalAlign=middle;whiteSpace=wrap;rounded=0;" vertex="1" parent="1">
          <mxGeometry x="440" y="585" width="80" height="30" as="geometry" />
        </mxCell>
        <mxCell id="LqhjX-hlJjgKgtCB3ZIO-190" value="&lt;font style=&quot;font-size: 14px;&quot; face=&quot;Times New Roman&quot;&gt;&lt;b&gt;ACCUMULATE&lt;/b&gt;&lt;/font&gt;" style="text;html=1;align=center;verticalAlign=middle;whiteSpace=wrap;rounded=0;" vertex="1" parent="1">
          <mxGeometry x="440" y="705" width="80" height="30" as="geometry" />
        </mxCell>
        <mxCell id="LqhjX-hlJjgKgtCB3ZIO-191" value="&lt;div&gt;&lt;b&gt;&lt;font style=&quot;font-size: 14px;&quot; face=&quot;Times New Roman&quot;&gt;PLL &lt;br&gt;&lt;/font&gt;&lt;/b&gt;&lt;/div&gt;&lt;div&gt;&lt;b&gt;&lt;font style=&quot;font-size: 14px;&quot; face=&quot;Times New Roman&quot;&gt;DISCRIMINATOR&lt;/font&gt;&lt;font face=&quot;qQfTcMvlBahpxPpsoyMe&quot;&gt;&lt;br&gt;&lt;/font&gt;&lt;/b&gt;&lt;/div&gt;" style="text;html=1;align=center;verticalAlign=middle;whiteSpace=wrap;rounded=0;" vertex="1" parent="1">
          <mxGeometry x="625" y="285" width="90" height="30" as="geometry" />
        </mxCell>
        <mxCell id="LqhjX-hlJjgKgtCB3ZIO-192" value="&lt;div&gt;&lt;b&gt;&lt;font style=&quot;font-size: 14px;&quot; face=&quot;Times New Roman&quot;&gt;FLL &lt;br&gt;&lt;/font&gt;&lt;/b&gt;&lt;/div&gt;&lt;div&gt;&lt;b&gt;&lt;font style=&quot;font-size: 14px;&quot; face=&quot;Times New Roman&quot;&gt;DISCRIMINATOR&lt;/font&gt;&lt;font face=&quot;qQfTcMvlBahpxPpsoyMe&quot;&gt;&lt;br&gt;&lt;/font&gt;&lt;/b&gt;&lt;/div&gt;" style="text;html=1;align=center;verticalAlign=middle;whiteSpace=wrap;rounded=0;" vertex="1" parent="1">
          <mxGeometry x="625" y="525" width="90" height="30" as="geometry" />
        </mxCell>
        <mxCell id="LqhjX-hlJjgKgtCB3ZIO-193" value="&lt;div&gt;&lt;b&gt;&lt;font style=&quot;font-size: 14px;&quot; face=&quot;Times New Roman&quot;&gt;DLL &lt;br&gt;&lt;/font&gt;&lt;/b&gt;&lt;/div&gt;&lt;div&gt;&lt;b&gt;&lt;font style=&quot;font-size: 14px;&quot; face=&quot;Times New Roman&quot;&gt;DISCRIMINATOR&lt;/font&gt;&lt;font face=&quot;qQfTcMvlBahpxPpsoyMe&quot;&gt;&lt;br&gt;&lt;/font&gt;&lt;/b&gt;&lt;/div&gt;" style="text;html=1;align=center;verticalAlign=middle;whiteSpace=wrap;rounded=0;" vertex="1" parent="1">
          <mxGeometry x="785" y="405" width="90" height="30" as="geometry" />
        </mxCell>
        <mxCell id="LqhjX-hlJjgKgtCB3ZIO-194" value="&lt;div&gt;&lt;b&gt;&lt;font style=&quot;font-size: 14px;&quot; face=&quot;Times New Roman&quot;&gt;A&lt;/font&gt;&lt;/b&gt;&lt;/div&gt;&lt;div&gt;&lt;b&gt;&lt;font size=&quot;3&quot; face=&quot;Fm1BIgV4w-0KeYZKZ_WM&quot;&gt;D&lt;/font&gt;&lt;/b&gt;&lt;/div&gt;&lt;div&gt;&lt;b&gt;&lt;font size=&quot;3&quot; face=&quot;Fm1BIgV4w-0KeYZKZ_WM&quot;&gt;P&lt;/font&gt;&lt;/b&gt;&lt;/div&gt;&lt;div&gt;&lt;b&gt;&lt;font size=&quot;3&quot; face=&quot;Fm1BIgV4w-0KeYZKZ_WM&quot;&gt;L&lt;/font&gt;&lt;/b&gt;&lt;/div&gt;&lt;div&gt;&lt;b&gt;&lt;font face=&quot;Fm1BIgV4w-0KeYZKZ_WM&quot;&gt;&lt;font size=&quot;3&quot;&gt;L&lt;/font&gt;&lt;br&gt;&lt;/font&gt;&lt;/b&gt;&lt;/div&gt;" style="text;html=1;align=center;verticalAlign=middle;whiteSpace=wrap;rounded=0;" vertex="1" parent="1">
          <mxGeometry x="640" y="370" width="60" height="95" as="geometry" />
        </mxCell>
        <mxCell id="LqhjX-hlJjgKgtCB3ZIO-195" value="&lt;font style=&quot;font-size: 14px;&quot; face=&quot;Times New Roman&quot;&gt;&lt;b&gt;LOOP FILTER&lt;/b&gt;&lt;/font&gt;" style="text;html=1;align=center;verticalAlign=middle;whiteSpace=wrap;rounded=0;" vertex="1" parent="1">
          <mxGeometry x="978.75" y="285" width="112.5" height="30" as="geometry" />
        </mxCell>
        <mxCell id="LqhjX-hlJjgKgtCB3ZIO-196" value="&lt;font style=&quot;font-size: 14px;&quot; face=&quot;Times New Roman&quot;&gt;&lt;b&gt;LOOP FILTER&lt;/b&gt;&lt;/font&gt;" style="text;html=1;align=center;verticalAlign=middle;whiteSpace=wrap;rounded=0;" vertex="1" parent="1">
          <mxGeometry x="978.75" y="405" width="112.5" height="30" as="geometry" />
        </mxCell>
        <mxCell id="LqhjX-hlJjgKgtCB3ZIO-197" value="&lt;font style=&quot;font-size: 14px;&quot; face=&quot;Times New Roman&quot;&gt;&lt;b&gt;LOOP FILTER&lt;/b&gt;&lt;/font&gt;" style="text;html=1;align=center;verticalAlign=middle;whiteSpace=wrap;rounded=0;" vertex="1" parent="1">
          <mxGeometry x="978.75" y="525" width="112.5" height="30" as="geometry" />
        </mxCell>
      </root>
    </mxGraphModel>
  </diagram>
  <diagram name="Page-2" id="nYkzEv_mV5U1Do6EgEq9">
    <mxGraphModel grid="1" page="1" gridSize="10" guides="1" tooltips="1" connect="1" arrows="1" fold="1" pageScale="1" pageWidth="827" pageHeight="1169" math="0" shadow="0">
      <root>
        <mxCell id="0" />
        <mxCell id="1" parent="0" />
        <mxCell id="TEyKKUffehQr-uZDu1Bb-1" value="" style="rounded=0;whiteSpace=wrap;html=1;strokeWidth=3;" vertex="1" parent="1">
          <mxGeometry x="160" y="250" width="160" height="60" as="geometry" />
        </mxCell>
        <mxCell id="TEyKKUffehQr-uZDu1Bb-2" value="" style="rounded=0;whiteSpace=wrap;html=1;strokeWidth=3;" vertex="1" parent="1">
          <mxGeometry x="400" y="250" width="160" height="60" as="geometry" />
        </mxCell>
        <mxCell id="TEyKKUffehQr-uZDu1Bb-3" value="" style="rounded=0;whiteSpace=wrap;html=1;strokeWidth=3;" vertex="1" parent="1">
          <mxGeometry x="630" y="250" width="160" height="60" as="geometry" />
        </mxCell>
        <mxCell id="TEyKKUffehQr-uZDu1Bb-4" value="" style="rounded=0;whiteSpace=wrap;html=1;strokeWidth=3;" vertex="1" parent="1">
          <mxGeometry x="-80" y="250" width="160" height="60" as="geometry" />
        </mxCell>
        <mxCell id="TEyKKUffehQr-uZDu1Bb-5" value="" style="endArrow=classic;html=1;rounded=0;exitX=1;exitY=0.5;exitDx=0;exitDy=0;entryX=0;entryY=0.5;entryDx=0;entryDy=0;strokeWidth=3;" edge="1" parent="1" source="TEyKKUffehQr-uZDu1Bb-4" target="TEyKKUffehQr-uZDu1Bb-1">
          <mxGeometry width="50" height="50" relative="1" as="geometry">
            <mxPoint x="310" y="290" as="sourcePoint" />
            <mxPoint x="360" y="240" as="targetPoint" />
          </mxGeometry>
        </mxCell>
        <mxCell id="TEyKKUffehQr-uZDu1Bb-6" value="" style="endArrow=classic;html=1;rounded=0;exitX=1;exitY=0.5;exitDx=0;exitDy=0;entryX=0;entryY=0.5;entryDx=0;entryDy=0;strokeWidth=3;" edge="1" parent="1">
          <mxGeometry width="50" height="50" relative="1" as="geometry">
            <mxPoint x="320" y="279.5" as="sourcePoint" />
            <mxPoint x="400" y="279.5" as="targetPoint" />
          </mxGeometry>
        </mxCell>
        <mxCell id="TEyKKUffehQr-uZDu1Bb-7" value="" style="endArrow=classic;html=1;rounded=0;exitX=1;exitY=0.5;exitDx=0;exitDy=0;entryX=0;entryY=0.5;entryDx=0;entryDy=0;strokeWidth=3;" edge="1" parent="1" target="TEyKKUffehQr-uZDu1Bb-3">
          <mxGeometry width="50" height="50" relative="1" as="geometry">
            <mxPoint x="560" y="279.5" as="sourcePoint" />
            <mxPoint x="610" y="280" as="targetPoint" />
          </mxGeometry>
        </mxCell>
        <mxCell id="TEyKKUffehQr-uZDu1Bb-8" value="" style="endArrow=classic;html=1;rounded=0;exitX=1;exitY=0.5;exitDx=0;exitDy=0;strokeWidth=3;" edge="1" parent="1" source="TEyKKUffehQr-uZDu1Bb-3">
          <mxGeometry width="50" height="50" relative="1" as="geometry">
            <mxPoint x="480" y="380" as="sourcePoint" />
            <mxPoint x="870" y="280" as="targetPoint" />
          </mxGeometry>
        </mxCell>
        <mxCell id="TEyKKUffehQr-uZDu1Bb-10" value="" style="edgeStyle=elbowEdgeStyle;elbow=vertical;endArrow=classic;html=1;curved=0;rounded=0;endSize=8;startSize=8;entryX=0.5;entryY=0;entryDx=0;entryDy=0;strokeWidth=3;" edge="1" parent="1" target="TEyKKUffehQr-uZDu1Bb-4">
          <mxGeometry width="50" height="50" relative="1" as="geometry">
            <mxPoint x="830" y="280" as="sourcePoint" />
            <mxPoint x="440" y="210" as="targetPoint" />
            <Array as="points">
              <mxPoint x="420" y="200" />
            </Array>
          </mxGeometry>
        </mxCell>
        <mxCell id="TEyKKUffehQr-uZDu1Bb-11" value="" style="edgeStyle=segmentEdgeStyle;endArrow=classic;html=1;curved=0;rounded=0;endSize=8;startSize=8;strokeWidth=3;" edge="1" parent="1">
          <mxGeometry width="50" height="50" relative="1" as="geometry">
            <mxPoint x="360" y="280" as="sourcePoint" />
            <mxPoint x="862" y="350" as="targetPoint" />
            <Array as="points">
              <mxPoint x="360" y="350" />
              <mxPoint x="862" y="350" />
            </Array>
          </mxGeometry>
        </mxCell>
        <mxCell id="TEyKKUffehQr-uZDu1Bb-12" value="" style="rounded=1;whiteSpace=wrap;html=1;dashed=1;fillColor=none;strokeWidth=3;" vertex="1" parent="1">
          <mxGeometry x="-110" y="170" width="450" height="190" as="geometry" />
        </mxCell>
        <mxCell id="TEyKKUffehQr-uZDu1Bb-13" value="" style="endArrow=classic;html=1;rounded=0;entryX=0.067;entryY=0.579;entryDx=0;entryDy=0;entryPerimeter=0;strokeWidth=3;" edge="1" parent="1" target="TEyKKUffehQr-uZDu1Bb-12">
          <mxGeometry width="50" height="50" relative="1" as="geometry">
            <mxPoint x="-180" y="280" as="sourcePoint" />
            <mxPoint x="400" y="240" as="targetPoint" />
          </mxGeometry>
        </mxCell>
        <mxCell id="TEyKKUffehQr-uZDu1Bb-14" value="&lt;font face=&quot;Times New Roman&quot; style=&quot;font-size: 14px;&quot;&gt;&lt;b&gt;Combiner&lt;/b&gt;&lt;/font&gt;" style="text;html=1;align=center;verticalAlign=middle;whiteSpace=wrap;rounded=0;" vertex="1" parent="1">
          <mxGeometry x="-30" y="265" width="60" height="30" as="geometry" />
        </mxCell>
        <mxCell id="TEyKKUffehQr-uZDu1Bb-15" value="&lt;font style=&quot;font-size: 14px;&quot; face=&quot;Times New Roman&quot;&gt;&lt;b&gt;Discriminator&lt;/b&gt;&lt;/font&gt;" style="text;html=1;align=center;verticalAlign=middle;whiteSpace=wrap;rounded=0;" vertex="1" parent="1">
          <mxGeometry x="210" y="265" width="70" height="30" as="geometry" />
        </mxCell>
        <mxCell id="TEyKKUffehQr-uZDu1Bb-16" value="&lt;font style=&quot;font-size: 14px;&quot; face=&quot;Times New Roman&quot;&gt;&lt;b&gt;Loop Filter&lt;/b&gt;&lt;/font&gt;" style="text;html=1;align=center;verticalAlign=middle;whiteSpace=wrap;rounded=0;" vertex="1" parent="1">
          <mxGeometry x="440" y="265" width="80" height="30" as="geometry" />
        </mxCell>
        <mxCell id="TEyKKUffehQr-uZDu1Bb-17" value="&lt;font style=&quot;font-size: 14px;&quot; face=&quot;Times New Roman&quot;&gt;&lt;b&gt;Integrator (NCO)&lt;/b&gt;&lt;/font&gt;" style="text;html=1;align=center;verticalAlign=middle;whiteSpace=wrap;rounded=0;" vertex="1" parent="1">
          <mxGeometry x="670" y="265" width="80" height="30" as="geometry" />
        </mxCell>
        <mxCell id="TEyKKUffehQr-uZDu1Bb-18" value="&lt;font style=&quot;font-size: 14px;&quot; face=&quot;Times New Roman&quot;&gt;&lt;b&gt;Error estimator&lt;/b&gt;&lt;/font&gt;" style="text;html=1;align=center;verticalAlign=middle;whiteSpace=wrap;rounded=0;" vertex="1" parent="1">
          <mxGeometry x="70" y="320" width="120" height="30" as="geometry" />
        </mxCell>
        <mxCell id="TEyKKUffehQr-uZDu1Bb-19" value="&lt;font style=&quot;font-size: 14px;&quot; face=&quot;Times New Roman&quot;&gt;&lt;b&gt;Input&lt;br&gt;signal&lt;/b&gt;&lt;/font&gt;" style="text;html=1;align=center;verticalAlign=middle;whiteSpace=wrap;rounded=0;" vertex="1" parent="1">
          <mxGeometry x="-200" y="235" width="60" height="30" as="geometry" />
        </mxCell>
        <mxCell id="TEyKKUffehQr-uZDu1Bb-20" value="&lt;font face=&quot;Times New Roman&quot;&gt;&lt;span style=&quot;font-size: 14px;&quot;&gt;&lt;b&gt;Estimate&lt;/b&gt;&lt;/span&gt;&lt;/font&gt;" style="text;html=1;align=center;verticalAlign=middle;whiteSpace=wrap;rounded=0;" vertex="1" parent="1">
          <mxGeometry x="870" y="265" width="60" height="30" as="geometry" />
        </mxCell>
        <mxCell id="TEyKKUffehQr-uZDu1Bb-22" value="" style="edgeStyle=orthogonalEdgeStyle;rounded=0;orthogonalLoop=1;jettySize=auto;html=1;" edge="1" parent="1" source="TEyKKUffehQr-uZDu1Bb-21" target="TEyKKUffehQr-uZDu1Bb-20">
          <mxGeometry relative="1" as="geometry" />
        </mxCell>
        <mxCell id="TEyKKUffehQr-uZDu1Bb-21" value="&lt;font face=&quot;Times New Roman&quot;&gt;&lt;span style=&quot;font-size: 14px;&quot;&gt;&lt;b&gt;Error&lt;/b&gt;&lt;/span&gt;&lt;/font&gt;" style="text;html=1;align=center;verticalAlign=middle;whiteSpace=wrap;rounded=0;" vertex="1" parent="1">
          <mxGeometry x="870" y="340" width="60" height="30" as="geometry" />
        </mxCell>
      </root>
    </mxGraphModel>
  </diagram>
</mxfile>
